PathFileType	4	(X/Y/Z)	C:/Users/beibeiliu/ov580/test_trc/User1\sequence.4_training_dense_left.trc
DataRate	CameraRate	NumFrames	NumMarkers	Units	OrigDataRate	OrigDataStartFrame	OrigNumFrames
120	120	8	19	mm	120	1	251
Frame#	Time	ThumbCMC			ThumbMCP			ThumbIP			ThumbTip			IndexMCP			IndexPIP			IndexTip			MiddleMCP			MiddlePIP			MiddleTip			RingMCP			RingPIP			RingTip			PinkyMCP			PinkyPIP			PinkyTip			BackHand1			BackHand2			BackHand3	
		X0	Y0	Z0	X1	Y1	Z1	X2	Y2	Z2	X3	Y3	Z3	X4	Y4	Z4	X5	Y5	Z5	X6	Y6	Z6	X7	Y7	Z7	X8	Y8	Z8	X9	Y9	Z9	X10	Y10	Z10	X11	Y11	Z11	X12	Y12	Z12	X13	Y13	Z13	X14	Y14	Z14	X15	Y15	Z15	X16	Y16	Z16	X17	Y17	Z17	X18	Y18	Z18	
0	0	-158.593	84.371	24.8638	-136.549	67.2075	21.581	-110.982	59.4355	14.2643	-89.5729	52.844	11.3074	-163.612	68.0775	-61.336	-156.935	62.6056	-84.563	-153.143	60.1327	-114.486	-188.344	70.1814	-75.0471	-186.248	65.2937	-101.945	-186.479	60.1991	-131.025	-212.22	66.2347	-72.5468	-212.949	63.2719	-94.7626	-214.654	57.5437	-119.446	-245.966	57.928	-51.6968	-252.7	53.4261	-65.3346	-259.403	55.1888	-90.0201	-217.958	88.2918	-23.4659	-225.293	103.96	11.2208	-187.574	97.7173	-3.45272	
1	0.00833333	-159.726	81.9784	22.927	-135.195	66.8463	20.7813	-114.87	55.9164	11.1436	-90.4566	49.9382	10.7368	-164.098	66.4138	-62.4355	-158.103	61.2135	-88.6402	-155.154	56.9623	-115.418	-187.791	68.3275	-77.0439	-186.003	63.7679	-99.1021	-187.23	57.6512	-130.851	-217.59	65.3366	-70.6971	-213.14	60.3015	-94.6338	-215.401	55.2596	-123.857	-242.89	57.6331	-47.9614	-255.634	51.3278	-69.1261	-262.116	54.4463	-87.2461	-221.023	87.2994	-19.7419	-223.852	103.406	8.61253	-186.625	95.2365	-4.48189	
2	0.0166667	-160.728	81.757	24.6216	-138.47	66.2849	22.0194	-110.593	54.9179	10.9649	-95.2264	49.1384	11.9551	-158.771	64.1114	-64.9105	-158.882	59.1665	-86.2607	-152.21	55.3146	-110.372	-190.818	68.4909	-74.141	-186.567	62.0585	-100.193	-184.643	56.3205	-128.675	-213.156	64.9324	-68.3488	-214.193	58.1164	-98.8691	-217.35	53.1736	-122.68	-245.291	57.7193	-48.9828	-255.545	50.4924	-66.5179	-261.552	50.4538	-87.6361	-221.726	87.7175	-20.6589	-223.372	101.767	8.86553	-188.825	95.5827	-2.16826	
3	0.025	-156.149	81.1054	20.8789	-137.57	64.9392	19.037	-113.262	55.1914	11.4476	-95.5726	50.0201	13.7846	-161.788	63.9828	-65.0702	-154.329	59.1453	-89.0026	-157.965	54.4413	-110.51	-188.853	68.5464	-72.7946	-187.032	61.7122	-102.487	-187.779	55.9016	-129.806	-212.916	64.6391	-71.1583	-215.431	58.5089	-97.7074	-215.544	53.2576	-117.777	-240.856	57.9141	-48.7635	-251.74	51.8592	-67.9371	-262.277	52.6007	-87.6522	-219.577	86.3938	-23.0075	-226.71	102.571	6.81149	-186.673	95.5306	-5.15927	
4	0.0333333	-161.186	81.6312	22.7759	-135.122	64.8585	18.1709	-111.601	56.5485	13.9227	-92.1462	50.6783	14.2107	-159.436	65.3333	-61.7525	-156.563	59.8841	-84.788	-153.074	55.1125	-109.638	-185.958	68.1351	-78.5798	-183.998	60.2844	-104.54	-185.212	55.9735	-128.081	-217.687	63.8654	-70.5394	-214.11	58.4779	-99.3425	-217.538	52.1149	-122.547	-246.687	56.6944	-49.5088	-250.179	51.1429	-67.11	-262.515	51.9051	-88.1303	-220.206	88.0385	-23.212	-220.654	102.583	6.03566	-187.347	94.5077	-5.31509	
5	0.0416667	-159.151	80.703	19.1012	-136.161	65.6482	18.0908	-111.189	55.1644	9.4537	-90.9671	50.7038	13.4437	-158.804	65.5168	-60.5666	-158.523	58.8667	-89.5017	-153.619	54.3809	-110.141	-189.983	67.4315	-77.8541	-184.724	61.4466	-102.013	-187.82	55.596	-129.595	-218.144	64.1775	-70.774	-217.219	58.3142	-99.1743	-219.049	52.5403	-119.559	-244.429	58.0355	-50.2291	-249.916	51.7759	-65.3008	-262.621	49.6692	-87.037	-217.285	89.0378	-19.4425	-223.215	102.736	7.7535	-184.171	95.1466	-3.6246	
6	0.05	-156.504	81.6761	19.8554	-133.261	66.1002	18.5707	-114.361	54.9213	12.5515	-93.4155	50.1732	12.1602	-161.917	64.4984	-66.2937	-155.82	58.9279	-85.0331	-156.052	54.0003	-111.119	-190.573	67.5085	-78.4771	-184.51	61.7654	-99.6909	-185.225	56.8737	-131.296	-213.346	64.8083	-68.4801	-215.92	58.5538	-96.1004	-215.13	53.4698	-123.182	-246.464	57.7238	-49.4175	-254.373	50.5055	-69.1802	-262.993	50.219	-88.7172	-216.156	87.3299	-18.3527	-224.519	103.642	9.07357	-187.13	97.3781	-3.54661	
7	0.0583333	-157.889	83.5916	23.8342	-135.372	66.4284	20.8748	-108.973	56.4257	11.354	-91.221	52.1385	14.6996	-160.514	65.215	-64.9777	-153.919	58.0557	-89.5445	-156.301	54.2658	-111.319	-188.336	67.4017	-77.9718	-185.037	61.314	-100.711	-181.104	55.6864	-133.585	-212.833	65.0656	-69.8392	-218.111	58.6865	-96.7603	-217.738	52.8791	-119.771	-246.695	57.833	-52.041	-251.886	51.5544	-66.4564	-263.337	48.8063	-91.5753	-221.145	87.8756	-19.3435	-223.805	102.9	7.26928	-183.683	97.6915	-4.22241	
